<?xml version="1.0" encoding="utf-8"?>
<!-- Generator: Adobe Illustrator 24.0.1, SVG Export Plug-In . SVG Version: 6.00 Build 0)  -->
<svg version="1.1" id="Layer_1" xmlns="http://www.w3.org/2000/svg" xmlns:xlink="http://www.w3.org/1999/xlink" x="0px" y="0px"
	 viewBox="0 0 1000.2 1000.2" style="enable-background:new 0 0 1000.2 1000.2;" xml:space="preserve">
<style type="text/css">
	.st0{fill:#231F20;}
	.st1{fill:none;stroke:#FFFFFF;stroke-width:1.1358;stroke-miterlimit:10;}
	.st2{fill:#231F20;stroke:#231F20;stroke-width:1.1358;stroke-miterlimit:10;}
	.st3{fill:none;stroke:#FAFCF8;stroke-width:40.8876;stroke-miterlimit:10;}
	.st4{fill:#0D0F1E;stroke:#FFFFFF;stroke-width:1.1358;stroke-miterlimit:10;}
</style>
<g>
	<polygon class="st0" points="990.8,9.4 827.2,9.4 663.7,336.5 500.1,9.4 9.4,990.8 173,990.8 500.1,336.5 581.9,500.1 663.7,663.7 
		827.2,990.8 990.8,990.8 745.4,500.1 	"/>
	<polygon class="st1" points="990.8,9.4 827.2,9.4 663.7,336.5 500.1,9.4 9.4,990.8 173,990.8 500.1,336.5 581.9,500.1 663.7,663.7 
		827.2,990.8 990.8,990.8 745.4,500.1 	"/>
	<polygon class="st0" points="500.1,663.7 336.5,990.8 500.1,990.8 581.9,827.2 	"/>
	<polygon class="st1" points="500.1,663.7 336.5,990.8 500.1,990.8 581.9,827.2 	"/>
	<polygon class="st2" points="500.1,663.7 581.9,827.2 500.1,990.8 336.5,990.8 	"/>
	<path class="st3" d="M663.7,336.5"/>
	<path class="st4" d="M827.2,9.4"/>
</g>
</svg>
