<?xml version="1.0" encoding="utf-8"?>
<!-- Generator: Adobe Illustrator 24.0.1, SVG Export Plug-In . SVG Version: 6.00 Build 0)  -->
<svg version="1.1" id="Layer_1" xmlns="http://www.w3.org/2000/svg" xmlns:xlink="http://www.w3.org/1999/xlink" x="0px" y="0px"
	 viewBox="0 0 1000.2 1000.2" style="enable-background:new 0 0 1000.2 1000.2;" xml:space="preserve">
<style type="text/css">
	.st0{fill:#231F20;}
	.st1{fill:none;stroke:#FFFFFF;stroke-width:0.75;stroke-miterlimit:10;}
	.st2{fill:#231F20;stroke:#231F20;stroke-width:0.75;stroke-miterlimit:10;}
	.st3{fill:none;stroke:#FAFCF8;stroke-width:27;stroke-miterlimit:10;}
	.st4{fill:#0D0F1E;stroke:#FFFFFF;stroke-width:0.75;stroke-miterlimit:10;}
</style>
<g>
	<polygon class="st0" points="824.1,176.1 716.1,176.1 608.1,392.1 500.1,176.1 176.1,824.1 284.1,824.1 500.1,392.1 554.1,500.1 
		608.1,608.1 716.1,824.1 824.1,824.1 662.1,500.1 	"/>
	<polygon class="st1" points="824.1,176.1 716.1,176.1 608.1,392.1 500.1,176.1 176.1,824.1 284.1,824.1 500.1,392.1 554.1,500.1 
		608.1,608.1 716.1,824.1 824.1,824.1 662.1,500.1 	"/>
	<polygon class="st0" points="500.1,608.1 392.1,824.1 500.1,824.1 554.1,716.1 	"/>
	<polygon class="st1" points="500.1,608.1 392.1,824.1 500.1,824.1 554.1,716.1 	"/>
	<polygon class="st2" points="500.1,608.1 554.1,716.1 500.1,824.1 392.1,824.1 	"/>
	<path class="st3" d="M608.1,392.1"/>
	<path class="st4" d="M716.1,176.1"/>
</g>
</svg>
