<svg id="Layer_1" data-name="Layer 1" xmlns="http://www.w3.org/2000/svg" viewBox="0 0 1000.25 1000.25"><defs><style>.cls-1{fill:#fcfdfb;stroke:#fffffc;}.cls-1,.cls-3,.cls-4,.cls-5,.cls-6{stroke-miterlimit:10;}.cls-1,.cls-3,.cls-4,.cls-6{stroke-width:0.25px;}.cls-2,.cls-4{fill:#231f20;}.cls-3,.cls-5{fill:none;}.cls-3,.cls-6{stroke:#fff;}.cls-4{stroke:#231f20;}.cls-5{stroke:#fafcf8;stroke-width:9px;}.cls-6{fill:#0d0f1e;}</style></defs><rect class="cls-1" x="0.13" y="0.13" width="1000" height="1000"/><polygon class="cls-2" points="603.13 414.13 567.13 414.13 531.13 486.13 495.13 414.13 387.13 630.13 423.13 630.13 495.13 486.13 513.13 522.13 531.13 558.13 567.13 630.13 603.13 630.13 549.13 522.13 603.13 414.13"/><polygon class="cls-3" points="603.13 414.13 567.13 414.13 531.13 486.13 495.13 414.13 387.13 630.13 423.13 630.13 495.13 486.13 513.13 522.13 531.13 558.13 567.13 630.13 603.13 630.13 549.13 522.13 603.13 414.13"/><polygon class="cls-2" points="495.13 558.13 459.13 630.13 495.13 630.13 513.13 594.13 495.13 558.13"/><polygon class="cls-3" points="495.13 558.13 459.13 630.13 495.13 630.13 513.13 594.13 495.13 558.13"/><polygon class="cls-4" points="495.13 558.13 513.13 594.13 495.13 630.13 459.13 630.13 495.13 558.13"/><path class="cls-5" d="M531,486" transform="translate(0.13 0.13)"/><path class="cls-6" d="M567,414" transform="translate(0.13 0.13)"/></svg>