<?xml version="1.0" encoding="utf-8"?>
<!-- Generator: Adobe Illustrator 24.0.1, SVG Export Plug-In . SVG Version: 6.00 Build 0)  -->
<svg version="1.1" id="Layer_1" xmlns="http://www.w3.org/2000/svg" xmlns:xlink="http://www.w3.org/1999/xlink" x="0px" y="0px"
	 viewBox="0 0 1000.2 1000.2" style="enable-background:new 0 0 1000.2 1000.2;" xml:space="preserve">
<style type="text/css">
	.st0{fill:#FCFDFB;stroke:#FFFFFC;stroke-width:1.5;stroke-miterlimit:10;}
	.st1{fill:#231F20;}
	.st2{fill:none;stroke:#FFFFFF;stroke-width:1.5;stroke-miterlimit:10;}
	.st3{fill:#231F20;stroke:#231F20;stroke-width:1.5;stroke-miterlimit:10;}
	.st4{fill:none;stroke:#FAFCF8;stroke-width:54;stroke-miterlimit:10;}
	.st5{fill:#0D0F1E;stroke:#FFFFFF;stroke-width:1.5;stroke-miterlimit:10;}
</style>
<rect x="-2499.9" y="-2499.9" class="st0" width="6000" height="6000"/>
<polygon class="st1" points="1118.1,-15.9 902.1,-15.9 686.1,416.1 470.1,-15.9 -177.9,1280.1 38.1,1280.1 470.1,416.1 578.1,632.1 
	686.1,848.1 902.1,1280.1 1118.1,1280.1 794.1,632.1 "/>
<polygon class="st2" points="1118.1,-15.9 902.1,-15.9 686.1,416.1 470.1,-15.9 -177.9,1280.1 38.1,1280.1 470.1,416.1 578.1,632.1 
	686.1,848.1 902.1,1280.1 1118.1,1280.1 794.1,632.1 "/>
<polygon class="st1" points="470.1,848.1 254.1,1280.1 470.1,1280.1 578.1,1064.1 "/>
<polygon class="st2" points="470.1,848.1 254.1,1280.1 470.1,1280.1 578.1,1064.1 "/>
<polygon class="st3" points="470.1,848.1 578.1,1064.1 470.1,1280.1 254.1,1280.1 "/>
<path class="st4" d="M686.1,416.1"/>
<path class="st5" d="M902.1-15.9"/>
</svg>
